HIERARCHY
ROOT Hips
{
	OFFSET 0.000000 0.000000 0.000000
	CHANNELS 6 Xposition Yposition Zposition Zrotation Yrotation Xrotation 
	JOINT LHipJoint
	{
		OFFSET 0.000000 0.000000 0.000000
		CHANNELS 3 Zrotation Yrotation Xrotation
		JOINT LeftUpLeg
		{
			OFFSET 1.363060 -1.794630 0.839290
			CHANNELS 3 Zrotation Yrotation Xrotation
			JOINT LeftLeg
			{
				OFFSET 2.448110 -6.726130 0.000000
				CHANNELS 3 Zrotation Yrotation Xrotation
				JOINT LeftFoot
				{
					OFFSET 2.562200 -7.039590 0.000000
					CHANNELS 3 Zrotation Yrotation Xrotation
					JOINT LeftToeBase
					{
						OFFSET 0.157640 -0.433110 2.322550
						CHANNELS 3 Zrotation Yrotation Xrotation
						End Site
						{
							OFFSET 0.000000 0.000000 0.000000
						}
					}
				}
			}
		}
	}
	JOINT RHipJoint
	{
		OFFSET 0.000000 0.000000 0.000000
		CHANNELS 3 Zrotation Yrotation Xrotation
		JOINT RightUpLeg
		{
			OFFSET -1.305520 -1.794630 0.839290
			CHANNELS 3 Zrotation Yrotation Xrotation
			JOINT RightLeg
			{
				OFFSET -2.542530 -6.985550 0.000000
				CHANNELS 3 Zrotation Yrotation Xrotation
				JOINT RightFoot
				{
					OFFSET -2.568260 -7.056230 0.000000
					CHANNELS 3 Zrotation Yrotation Xrotation
					JOINT RightToeBase
					{
						OFFSET -0.164730 -0.452590 2.363150
						CHANNELS 3 Zrotation Yrotation Xrotation
						End Site
						{
							OFFSET 0.000000 0.000000 0.000000
						}
					}
				}
			}
		}
	}
	JOINT LowerBack
	{
		OFFSET 0.000000 0.000000 0.000000
		CHANNELS 3 Zrotation Yrotation Xrotation
		JOINT Spine
		{
			OFFSET 0.028270 2.035590 -0.193380
			CHANNELS 3 Zrotation Yrotation Xrotation
			JOINT Spine1
			{
				OFFSET 0.056720 2.048850 -0.042750
				CHANNELS 3 Zrotation Yrotation Xrotation
				JOINT Neck
				{
					OFFSET 0.000000 0.000000 0.000000
					CHANNELS 3 Zrotation Yrotation Xrotation
					JOINT Neck1
					{
						OFFSET -0.054170 1.746240 0.172020
						CHANNELS 3 Zrotation Yrotation Xrotation
						JOINT Head
						{
							OFFSET 0.104070 1.761360 -0.123970
							CHANNELS 3 Zrotation Yrotation Xrotation
							End Site
							{
								OFFSET 0.000000 0.000000 0.000000
							}
						}
					}
				}
				JOINT LeftShoulder
				{
					OFFSET 0.000000 0.000000 0.000000
					CHANNELS 3 Zrotation Yrotation Xrotation
					JOINT LeftArm
					{
						OFFSET 3.362410 1.200890 -0.311210
						CHANNELS 3 Zrotation Yrotation Xrotation
						JOINT LeftForeArm
						{
							OFFSET 4.983000 -0.000000 -0.000000
							CHANNELS 3 Zrotation Yrotation Xrotation
							JOINT LeftHand
							{
								OFFSET 3.483560 -0.000000 -0.000000
								CHANNELS 3 Zrotation Yrotation Xrotation
								JOINT LeftFingerBase
								{
									OFFSET 0.000000 0.000000 0.000000
									CHANNELS 3 Zrotation Yrotation Xrotation
									JOINT LeftHandIndex1
									{
										OFFSET 0.715260 -0.000000 -0.000000
										CHANNELS 3 Zrotation Yrotation Xrotation
										End Site
										{
											OFFSET 0.000000 0.000000 0.000000
										}
									}
								}
								JOINT LThumb
								{
									OFFSET 0.000000 0.000000 0.000000
									CHANNELS 3 Zrotation Yrotation Xrotation
									End Site
									{
										OFFSET 0.000000 0.000000 0.000000
									}
								}
							}
						}
					}
				}
				JOINT RightShoulder
				{
					OFFSET 0.000000 0.000000 0.000000
					CHANNELS 3 Zrotation Yrotation Xrotation
					JOINT RightArm
					{
						OFFSET -3.136600 1.374050 -0.404650
						CHANNELS 3 Zrotation Yrotation Xrotation
						JOINT RightForeArm
						{
							OFFSET -5.241900 -0.000000 -0.000000
							CHANNELS 3 Zrotation Yrotation Xrotation
							JOINT RightHand
							{
								OFFSET -3.444170 -0.000000 -0.000000
								CHANNELS 3 Zrotation Yrotation Xrotation
								JOINT RightFingerBase
								{
									OFFSET 0.000000 0.000000 0.000000
									CHANNELS 3 Zrotation Yrotation Xrotation
									JOINT RightHandIndex1
									{
										OFFSET -0.622530 -0.000000 -0.000000
										CHANNELS 3 Zrotation Yrotation Xrotation
										End Site
										{
											OFFSET 0.000000 0.000000 0.000000
										}
									}
								}
								JOINT RThumb
								{
									OFFSET 0.000000 0.000000 0.000000
									CHANNELS 3 Zrotation Yrotation Xrotation
									End Site
									{
										OFFSET 0.000000 0.000000 0.000000
									}
								}
							}
						}
					}
				}
			}
		}
	}
}
MOTION
Frames: 5
Frame Time: 0.008333
-1.126948 15.518016 -0.589901 -125.472901 80.873687 -99.689071 -9.379050 -2.424161 -1.348869 -19.521335 2.242794 -71.381523 -1.642120 3.857093 53.311721 3.685678 12.368606 -22.475484 -2.924100 0.000000 -3.315800 9.789633 -3.296667 -7.269351 13.987872 -21.807244 -28.320401 0.811251 -5.286000 61.199769 -0.455405 -0.877970 -0.676361 -0.142300 0.000000 -83.097900 -1.212487 0.658528 11.034996 -0.855929 1.002981 -0.679961 -4.910925 1.066593 0.041494 8.201811 -9.168827 -7.922365 -1.059109 -0.046748 -0.492901 0.000000 0.000000 0.000000 2.246845 19.378264 2.312664 -76.291964 27.626020 13.459189 -0.371261 -81.368892 -0.002701 1.444667 0.356608 0.003262 -0.020941 0.146508 0.000000 0.000000 0.000000 0.000000 0.000000 0.000000 0.000000 1.568345 -2.514806 -1.121952 61.459786 16.582941 11.190582 179.788375 83.648743 179.956478 -6.540929 3.099009 -0.206696 0.131706 -0.457671 -0.000000 0.000000 0.000000 0.000000 0.000000 0.000000 0.000000 
-0.929206 15.454860 -0.616381 -124.321351 80.633403 -99.124003 -9.420205 -2.560133 -1.504139 -18.930109 2.605606 -71.198149 -1.390639 4.011528 55.764587 3.680013 12.616304 -22.919399 -3.105700 0.000000 -1.266700 9.979247 -3.302475 -7.284601 13.357735 -22.115077 -27.918729 0.520323 -5.378166 62.694731 -0.475603 -0.828475 1.675757 -0.143600 -0.000001 -83.536200 -1.474348 0.632515 11.181220 -0.930127 0.984179 -0.684042 -5.005869 1.050559 -0.080927 8.294585 -9.018916 -7.925141 -1.090627 -0.048990 -0.493249 0.000000 0.000000 0.000000 2.030417 19.096565 2.323477 -76.051754 27.086216 13.229301 -0.372424 -81.431864 -0.003367 1.684080 0.435667 0.004891 -0.024832 0.148366 0.000000 0.000000 0.000000 0.000000 0.000000 0.000000 0.000000 1.699397 -2.300695 -1.058591 61.851721 16.093135 11.589059 179.786827 83.846183 179.959672 -6.096395 3.158552 -0.195803 0.121919 -0.456869 -0.000000 0.000000 0.000000 0.000000 0.000000 0.000000 0.000000 
-0.734157 15.393217 -0.642357 -123.420445 80.431685 -98.790870 -9.449971 -2.667179 -1.670946 -18.467645 2.951820 -70.929887 -1.168807 4.147889 58.082155 3.691574 12.887762 -23.530181 176.659800 0.000000 -0.238900 10.168744 -3.276012 -7.290586 12.692982 -22.323488 -27.609221 0.228748 -5.463801 64.254008 -0.524330 -0.834176 4.059732 -0.134700 0.000000 -83.348500 -1.757806 0.608976 11.332600 -1.009581 0.967185 -0.688094 -5.104271 1.036120 -0.207160 8.382184 -8.858272 -7.923216 -1.130665 -0.051870 -0.493465 0.000000 0.000000 0.000000 1.798614 18.783221 2.334409 -75.726419 26.365468 13.094929 -0.376800 -81.411687 -0.004133 1.946637 0.562177 0.007723 -0.029380 0.149874 0.000000 0.000000 0.000000 0.000000 0.000000 0.000000 0.000000 1.868064 -2.079912 -0.987769 62.260257 15.570708 11.957915 179.787462 84.100059 179.962922 -5.641474 3.220750 -0.184112 0.111728 -0.455813 -0.000000 0.000000 0.000000 0.000000 0.000000 0.000000 0.000000 
-0.541814 15.334185 -0.667829 -122.831383 80.274735 -98.748670 -9.469887 -2.743896 -1.845480 -18.132203 3.261296 -70.551665 -0.978831 4.263145 60.220397 3.728403 13.210889 -24.332540 176.356900 -0.000000 -1.371700 10.354136 -3.219472 -7.290366 11.996264 -22.441591 -27.388140 -0.053527 -5.543660 65.852644 -0.596035 -0.881706 6.388834 -0.120699 -0.000000 -82.545100 -2.062869 0.583607 11.488695 -1.094598 0.947361 -0.695375 -5.208144 1.018468 -0.349713 8.460475 -8.684008 -7.903730 -1.181243 -0.055774 -0.489652 0.000000 0.000000 0.000000 1.504909 18.378504 2.341838 -75.298757 25.537806 12.984227 -0.382155 -81.378431 -0.004993 2.226255 0.733937 0.012157 -0.034373 0.151031 0.000000 0.000000 0.000000 0.000000 0.000000 0.000000 0.000000 2.077344 -1.853294 -0.903838 62.690349 15.015320 12.304614 179.790618 84.429329 179.966186 -5.184313 3.288733 -0.172221 0.101476 -0.454476 -0.000000 0.000000 0.000000 0.000000 0.000000 0.000000 0.000000 
-0.352420 15.278107 -0.693773 -122.516456 80.140539 -98.951431 -9.488848 -2.798555 -2.020178 -17.882775 3.530768 -70.074114 -0.817645 4.358008 62.165010 3.792123 13.598106 -25.308822 175.983200 0.000000 -2.097700 10.524183 -3.144374 -7.281032 11.320242 -22.451254 -27.258186 -0.319248 -5.618785 67.471640 -0.685110 -0.989802 8.537269 -0.115400 -0.000000 -81.076400 -2.361318 0.560943 11.639656 -1.178507 0.928845 -0.703515 -5.314326 1.001717 -0.491356 8.522803 -8.513147 -7.876075 -1.239960 -0.060367 -0.484325 0.000000 0.000000 0.000000 1.187395 17.931778 2.346959 -74.794470 24.537634 12.945036 -0.391055 -81.262377 -0.005953 2.520249 0.951135 0.018594 -0.039995 0.151823 0.000000 0.000000 0.000000 0.000000 0.000000 0.000000 0.000000 2.317603 -1.640875 -0.813703 63.136493 14.440922 12.626734 179.797633 84.846760 179.969395 -4.734519 3.362943 -0.160231 0.091258 -0.452715 -0.000000 0.000000 0.000000 0.000000 0.000000 0.000000 0.000000 
